<?xml version="1.0" encoding="utf-8"?>
<svg version="1.1" xmlns:xlink="http://www.w3.org/1999/xlink" width="130px" height="27px" xmlns="http://www.w3.org/2000/svg">
  <g transform="matrix(1 0 0 1 -48 -173 )">
    <path d="M 50 181  A 6 6 0 0 1 56 175 L 170 175  A 6 6 0 0 1 176 181 L 176 192  A 6 6 0 0 1 170 198 L 56 198  A 6 6 0 0 1 50 192 L 50 181  Z " fill-rule="nonzero" fill="#ffffff" stroke="none" fill-opacity="0" />
    <path d="M 49 181  A 7 7 0 0 1 56 174 L 170 174  A 7 7 0 0 1 177 181 L 177 192  A 7 7 0 0 1 170 199 L 56 199  A 7 7 0 0 1 49 192 L 49 181  Z " stroke-width="2" stroke-dasharray="18,8" stroke="#d9001b" fill="none" />
  </g>
</svg>